<svg width="121" height="121" viewBox="0 0 121 121" fill="none" xmlns="http://www.w3.org/2000/svg">
<path d="M90.2393 40.13C90.2393 32.1735 87.0786 24.5429 81.4525 18.9168C75.8264 13.2907 68.1958 10.13 60.2393 10.13C52.2828 10.13 44.6521 13.2907 39.0261 18.9168C33.4 24.5429 30.2393 32.1735 30.2393 40.13C30.2393 75.13 15.2393 85.13 15.2393 85.13H105.239C105.239 85.13 90.2393 75.13 90.2393 40.13Z" stroke="black" stroke-width="10" stroke-linecap="round" stroke-linejoin="round"/>
<path d="M68.8869 105.13C68.0079 106.645 66.7461 107.903 65.228 108.778C63.71 109.652 61.9888 110.112 60.2369 110.112C58.485 110.112 56.7639 109.652 55.2458 108.778C53.7277 107.903 52.466 106.645 51.5869 105.13" stroke="black" stroke-width="10" stroke-linecap="round" stroke-linejoin="round"/>
</svg>
