<svg width="280" height="280" viewBox="0 0 280 280" fill="none" xmlns="http://www.w3.org/2000/svg">
<path d="M133.237 13.8264C137.417 10.8506 143.082 10.95 147.163 14.1242L252.163 95.7912C255.005 98.0015 256.667 101.4 256.667 105V233.333C256.667 242.616 252.979 251.518 246.415 258.082C239.851 264.646 230.949 268.333 221.667 268.333H186.667V140C186.667 133.657 181.605 128.497 175.301 128.337L175 128.333H105C98.6572 128.333 93.4965 133.395 93.3369 139.699L93.333 140V268.333H58.333C49.0507 268.333 40.1486 264.646 33.585 258.082C27.0212 251.518 23.333 242.616 23.333 233.333V105C23.3331 101.4 24.9954 98.0015 27.8369 95.7912L132.837 14.1242L133.237 13.8264ZM163.333 151.667V268.333H116.667V151.667H163.333Z" fill="black"/>
</svg>
