<svg width="280" height="280" viewBox="0 0 280 280" fill="none" xmlns="http://www.w3.org/2000/svg">
<path d="M256.666 140H186.666L163.333 175H116.666L93.333 140H23.333" stroke="black" stroke-width="23.3333" stroke-linecap="round" stroke-linejoin="round"/>
<path d="M63.583 59.6167L23.333 140V210C23.333 216.188 25.7913 222.123 30.1672 226.499C34.543 230.875 40.478 233.333 46.6663 233.333H233.333C239.521 233.333 245.456 230.875 249.832 226.499C254.208 222.123 256.666 216.188 256.666 210V140L216.416 59.6167C214.485 55.7292 211.507 52.4577 207.817 50.1699C204.128 47.8822 199.874 46.669 195.533 46.6667H84.4663C80.1254 46.669 75.8711 47.8822 72.1819 50.1699C68.4926 52.4577 65.5147 55.7292 63.583 59.6167Z" stroke="black" stroke-width="23.3333" stroke-linecap="round" stroke-linejoin="round"/>
</svg>
