<svg width="280" height="280" viewBox="0 0 280 280" fill="none" xmlns="http://www.w3.org/2000/svg">
<path d="M221.667 23.333C240.997 23.3332 256.667 39.0033 256.667 58.333V221.667C256.667 240.997 240.997 256.667 221.667 256.667H58.333C39.0033 256.667 23.3332 240.997 23.333 221.667V58.333C23.3332 39.0033 39.0033 23.3332 58.333 23.333H221.667ZM140 81.666C133.557 81.666 128.333 86.8898 128.333 93.333V128.333H93.333C86.8897 128.333 81.666 133.557 81.666 140C81.666 146.443 86.8897 151.667 93.333 151.667H128.333V186.666C128.333 193.109 133.557 198.333 140 198.333C146.443 198.333 151.667 193.109 151.667 186.666V151.667H186.666L186.968 151.663C193.272 151.503 198.333 146.343 198.333 140C198.333 133.657 193.272 128.497 186.968 128.337L186.666 128.333H151.667V93.333C151.667 86.8898 146.443 81.666 140 81.666Z" fill="black"/>
</svg>
