<svg width="345" height="344" viewBox="0 0 345 344" fill="none" xmlns="http://www.w3.org/2000/svg">
<path d="M57.8947 43.0871H287.162C294.762 43.0871 302.052 46.1065 307.426 51.4809C312.801 56.8554 315.82 64.1448 315.82 71.7455V157.721C315.82 195.724 300.723 232.171 273.851 259.043C246.978 285.916 210.532 301.012 172.528 301.012C153.711 301.012 135.078 297.306 117.693 290.105C100.308 282.904 84.5114 272.349 71.2055 259.043C44.3331 232.171 29.2363 195.724 29.2363 157.721V71.7455C29.2363 64.1448 32.2557 56.8554 37.6302 51.4809C43.0047 46.1065 50.294 43.0871 57.8947 43.0871Z" stroke="white" stroke-width="28.6584" stroke-linecap="round" stroke-linejoin="round"/>
<path d="M115.212 143.391L172.529 200.708L229.845 143.391" stroke="white" stroke-width="28.6584" stroke-linecap="round" stroke-linejoin="round"/>
</svg>
