<svg width="121" height="121" viewBox="0 0 121 121" fill="none" xmlns="http://www.w3.org/2000/svg">
<g clip-path="url(#clip0_4072_294)">
<path d="M60.1738 75.58C68.4581 75.58 75.1738 68.8643 75.1738 60.58C75.1738 52.2957 68.4581 45.58 60.1738 45.58C51.8896 45.58 45.1738 52.2957 45.1738 60.58C45.1738 68.8643 51.8896 75.58 60.1738 75.58Z" stroke="black" stroke-width="10" stroke-linecap="round" stroke-linejoin="round"/>
<path d="M97.1738 75.58C96.5083 77.0881 96.3097 78.761 96.6038 80.383C96.8979 82.0049 97.6711 83.5016 98.8238 84.68L99.1238 84.98C100.054 85.9087 100.791 87.0116 101.294 88.2256C101.798 89.4396 102.057 90.7409 102.057 92.055C102.057 93.3692 101.798 94.6704 101.294 95.8844C100.791 97.0984 100.054 98.2013 99.1238 99.13C98.1951 100.06 97.0922 100.797 95.8782 101.301C94.6643 101.804 93.363 102.063 92.0488 102.063C90.7347 102.063 89.4334 101.804 88.2194 101.301C87.0054 100.797 85.9026 100.06 84.9738 99.13L84.6738 98.83C83.4954 97.6773 81.9987 96.9041 80.3768 96.61C78.7548 96.3159 77.0819 96.5144 75.5738 97.18C74.095 97.8138 72.8337 98.8662 71.9454 100.208C71.057 101.549 70.5802 103.121 70.5738 104.73V105.58C70.5738 108.232 69.5203 110.776 67.6449 112.651C65.7695 114.526 63.226 115.58 60.5738 115.58C57.9217 115.58 55.3781 114.526 53.5028 112.651C51.6274 110.776 50.5738 108.232 50.5738 105.58V105.13C50.5351 103.475 49.9994 101.87 49.0364 100.524C48.0733 99.177 46.7275 98.1514 45.1738 97.58C43.6657 96.9144 41.9929 96.7159 40.3709 97.01C38.7489 97.3041 37.2522 98.0773 36.0738 99.23L35.7738 99.53C34.8451 100.46 33.7422 101.197 32.5282 101.701C31.3142 102.204 30.013 102.463 28.6988 102.463C27.3847 102.463 26.0834 102.204 24.8694 101.701C23.6554 101.197 22.5526 100.46 21.6238 99.53C20.6941 98.6013 19.9565 97.4984 19.4532 96.2844C18.95 95.0704 18.691 93.7692 18.691 92.455C18.691 91.1409 18.95 89.8396 19.4532 88.6256C19.9565 87.4116 20.6941 86.3087 21.6238 85.38L21.9238 85.08C23.0765 83.9016 23.8498 82.4049 24.1439 80.783C24.4379 79.161 24.2394 77.4881 23.5738 75.98C22.94 74.5012 21.8876 73.2399 20.5462 72.3516C19.2047 71.4632 17.6328 70.9864 16.0238 70.98H15.1738C12.5217 70.98 9.97812 69.9264 8.10276 68.0511C6.2274 66.1757 5.17383 63.6322 5.17383 60.98C5.17383 58.3279 6.2274 55.7843 8.10276 53.909C9.97812 52.0336 12.5217 50.98 15.1738 50.98H15.6238C17.2788 50.9413 18.8839 50.4056 20.2303 49.4426C21.5768 48.4795 22.6024 47.1337 23.1738 45.58C23.8394 44.0719 24.0379 42.3991 23.7439 40.7771C23.4498 39.1551 22.6765 37.6584 21.5238 36.48L21.2238 36.18C20.2941 35.2513 19.5565 34.1484 19.0532 32.9344C18.55 31.7204 18.291 30.4192 18.291 29.105C18.291 27.7909 18.55 26.4896 19.0532 25.2756C19.5565 24.0616 20.2941 22.9587 21.2238 22.03C22.1526 21.1003 23.2554 20.3627 24.4694 19.8594C25.6834 19.3562 26.9847 19.0972 28.2988 19.0972C29.613 19.0972 30.9143 19.3562 32.1282 19.8594C33.3422 20.3627 34.4451 21.1003 35.3738 22.03L35.6738 22.33C36.8522 23.4827 38.3489 24.2559 39.9709 24.55C41.5929 24.8441 43.2657 24.6456 44.7738 23.98H45.1738C46.6527 23.3462 47.9139 22.2938 48.8023 20.9523C49.6907 19.6109 50.1674 18.039 50.1738 16.43V15.58C50.1738 12.9279 51.2274 10.3843 53.1028 8.50895C54.9781 6.63359 57.5217 5.58002 60.1738 5.58002C62.826 5.58002 65.3695 6.63359 67.2449 8.50895C69.1203 10.3843 70.1738 12.9279 70.1738 15.58V16.03C70.1802 17.6389 70.657 19.2109 71.5454 20.5523C72.4337 21.8938 73.695 22.9462 75.1738 23.58C76.6819 24.2456 78.3548 24.4441 79.9768 24.15C81.5987 23.8559 83.0954 23.0827 84.2738 21.93L84.5738 21.63C85.5026 20.7003 86.6054 19.9627 87.8194 19.4594C89.0334 18.9562 90.3347 18.6972 91.6488 18.6972C92.963 18.6972 94.2643 18.9562 95.4782 19.4594C96.6922 19.9627 97.7951 20.7003 98.7238 21.63C99.6536 22.5587 100.391 23.6616 100.894 24.8756C101.398 26.0896 101.657 27.3909 101.657 28.705C101.657 30.0192 101.398 31.3204 100.894 32.5344C100.391 33.7484 99.6536 34.8513 98.7238 35.78L98.4238 36.08C97.2711 37.2584 96.4979 38.7551 96.2038 40.3771C95.9097 41.999 96.1083 43.6719 96.7738 45.18V45.58C97.4076 47.0589 98.4601 48.3201 99.8015 49.2085C101.143 50.0969 102.715 50.5736 104.324 50.58H105.174C107.826 50.58 110.37 51.6336 112.245 53.509C114.12 55.3843 115.174 57.9279 115.174 60.58C115.174 63.2322 114.12 65.7757 112.245 67.6511C110.37 69.5264 107.826 70.58 105.174 70.58H104.724C103.115 70.5864 101.543 71.0632 100.202 71.9516C98.8601 72.8399 97.8076 74.1012 97.1738 75.58Z" stroke="black" stroke-width="10" stroke-linecap="round" stroke-linejoin="round"/>
</g>
<defs>
<clipPath id="clip0_4072_294">
<rect width="120" height="120" fill="white" transform="translate(0.173828 0.580017)"/>
</clipPath>
</defs>
</svg>
